<svg width="32" height="20" viewBox="0 0 32 20" fill="none" xmlns="http://www.w3.org/2000/svg">
<g clip-path="url(#clip0_53_276)">
<path fill-rule="evenodd" clip-rule="evenodd" d="M16.5 0C16.5 3.51202 15.3047 6.91948 13.1108 9.66191L12.6403 10.25L13.1108 10.8381C15.3047 13.5805 16.5 16.988 16.5 20.5H15.5C15.5 17.215 14.382 14.0279 12.3299 11.4628L11.9282 10.9607L8.77911 13.5849C7.16922 14.9265 4.83077 14.9265 3.22089 13.5849C1.13822 11.8494 1.13822 8.65062 3.22089 6.91507C4.83077 5.5735 7.16922 5.5735 8.7791 6.91507L11.9282 9.53933L12.3299 9.03721C14.382 6.4721 15.5 3.28495 15.5 0H16.5ZM11.219 10.25L8.13892 7.68329C6.89988 6.65076 5.10011 6.65076 3.86107 7.68329C2.25816 9.01905 2.25816 11.481 3.86107 12.8167C5.10011 13.8492 6.89989 13.8492 8.13892 12.8167L11.219 10.25Z" fill="black" fill-opacity="0.1"/>
</g>
<defs>
<clipPath id="clip0_53_276">
<rect width="32" height="20" fill="white"/>
</clipPath>
</defs>
</svg>
