<svg width="83" height="16" viewBox="0 0 83 16" fill="none" xmlns="http://www.w3.org/2000/svg">
<g filter="url(#filter0_i_19_1108)">
<path d="M78.0402 4.16807C79.325 4.16807 80.3484 4.58637 81.1103 5.42297C81.8871 6.25957 82.2755 7.38002 82.2755 8.78432V15.6863H79.3848V8.986C79.3848 8.31373 79.2204 7.79085 78.8918 7.41737C78.5631 7.04389 78.1 6.85715 77.5024 6.85715C76.8451 6.85715 76.3297 7.07377 75.9562 7.50701C75.5977 7.94024 75.4184 8.5677 75.4184 9.38936V15.6863H72.5276V8.986C72.5276 8.31373 72.3633 7.79085 72.0346 7.41737C71.706 7.04389 71.2428 6.85715 70.6453 6.85715C70.0029 6.85715 69.4875 7.08123 69.0991 7.52941C68.7256 7.96265 68.5388 8.58263 68.5388 9.38936V15.6863H65.6481V4.4818H68.5388V5.66947C69.2111 4.66854 70.2494 4.16807 71.6537 4.16807C73.043 4.16807 74.0589 4.70589 74.7013 5.78152C75.4333 4.70589 76.5463 4.16807 78.0402 4.16807Z" fill="url(#paint0_linear_19_1108)"/>
<path d="M60.1097 10.5322V4.48179H63.0005V15.6863H60.1097V14.4314C59.4225 15.4771 58.3096 16 56.7708 16C55.5458 16 54.5299 15.5892 53.7232 14.7675C52.9314 13.9309 52.5355 12.7955 52.5355 11.3613V4.48179H55.4263V11.0028C55.4263 11.7348 55.6205 12.3025 56.0089 12.7059C56.4123 13.1092 56.9575 13.3109 57.6448 13.3109C58.4067 13.3109 59.0042 13.0794 59.4375 12.6162C59.8856 12.1382 60.1097 11.4435 60.1097 10.5322Z" fill="url(#paint1_linear_19_1108)"/>
<path d="M47.0709 10.0168L51.7095 15.6863H48.3482L44.2698 10.5994V15.6863H41.379V0H44.2698V9.41176L48.1241 4.48179H51.5751L47.0709 10.0168Z" fill="url(#paint2_linear_19_1108)"/>
<path d="M37.6199 14.2969C36.4845 15.4323 35.0802 16 33.407 16C31.7338 16 30.3295 15.4323 29.1941 14.2969C28.0587 13.1615 27.4911 11.7572 27.4911 10.084C27.4911 8.42577 28.0587 7.02895 29.1941 5.89356C30.3445 4.74323 31.7488 4.16807 33.407 4.16807C35.0653 4.16807 36.4696 4.74323 37.6199 5.89356C38.7702 7.04389 39.3454 8.44071 39.3454 10.084C39.3454 11.7423 38.7702 13.1466 37.6199 14.2969ZM31.2333 12.3025C31.816 12.8852 32.5405 13.1765 33.407 13.1765C34.2735 13.1765 34.9981 12.8852 35.5807 12.3025C36.1633 11.7199 36.4546 10.9804 36.4546 10.084C36.4546 9.18768 36.1633 8.44818 35.5807 7.86555C34.9981 7.28292 34.2735 6.9916 33.407 6.9916C32.5405 6.9916 31.816 7.28292 31.2333 7.86555C30.6657 8.46312 30.3818 9.20262 30.3818 10.084C30.3818 10.9655 30.6657 11.7049 31.2333 12.3025Z" fill="url(#paint3_linear_19_1108)"/>
<path d="M24.3146 14.2969C23.1792 15.4323 21.7749 16 20.1017 16C18.4285 16 17.0242 15.4323 15.8888 14.2969C14.7534 13.1615 14.1857 11.7572 14.1857 10.084C14.1857 8.42577 14.7534 7.02895 15.8888 5.89356C17.0391 4.74323 18.4434 4.16807 20.1017 4.16807C21.76 4.16807 23.1643 4.74323 24.3146 5.89356C25.4649 7.04389 26.0401 8.44071 26.0401 10.084C26.0401 11.7423 25.4649 13.1466 24.3146 14.2969ZM17.928 12.3025C18.5107 12.8852 19.2352 13.1765 20.1017 13.1765C20.9682 13.1765 21.6927 12.8852 22.2754 12.3025C22.858 11.7199 23.1493 10.9804 23.1493 10.084C23.1493 9.18768 22.858 8.44818 22.2754 7.86555C21.6927 7.28292 20.9682 6.9916 20.1017 6.9916C19.2352 6.9916 18.5107 7.28292 17.928 7.86555C17.3603 8.46312 17.0765 9.20262 17.0765 10.084C17.0765 10.9655 17.3603 11.7049 17.928 12.3025Z" fill="url(#paint4_linear_19_1108)"/>
<path d="M8.91876 6.2297V5.34058e-06H11.9888V15.6863H8.91876V9.18768H3.09244V15.6863H0V5.34058e-06H3.09244V6.2297H8.91876Z" fill="url(#paint5_linear_19_1108)"/>
</g>
<path d="M52.6355 4.58179V11.3613C52.6355 12.7761 53.0254 13.8843 53.7951 14.698C54.5816 15.4988 55.571 15.9 56.7708 15.9C58.2847 15.9 59.3618 15.3874 60.0262 14.3765L60.2097 14.0971V14.4314V15.5863H62.9005V4.58179H60.2097V10.5322C60.2097 11.4589 59.9818 12.1818 59.5105 12.6846C59.5105 12.6846 59.5104 12.6846 59.5104 12.6846L59.4375 12.6162L52.6355 4.58179ZM52.6355 4.58179H55.3263H52.6355ZM81.0363 5.49031L81.037 5.49102C81.7929 6.30509 82.1755 7.39917 82.1755 8.78432V15.5863H79.4848V8.986C79.4848 8.29803 79.3165 7.74862 78.9668 7.35131C78.6154 6.95192 78.1224 6.75715 77.5024 6.75715C76.8208 6.75715 76.2759 6.98303 75.8804 7.4417L75.8792 7.44325C75.5003 7.90108 75.3184 8.55485 75.3184 9.38936V15.5863H72.6276V8.986C72.6276 8.29803 72.4593 7.74862 72.1097 7.35131C71.7582 6.95192 71.2653 6.75715 70.6453 6.75715C69.9766 6.75715 69.4326 6.99185 69.0235 7.46392L69.0233 7.46412C68.6288 7.92174 68.4388 8.56841 68.4388 9.38936V15.5863H65.7481V4.5818H68.4388V5.66947V5.99771L68.6218 5.72523C69.2723 4.75684 70.2763 4.26807 71.6537 4.26807C73.0124 4.26807 73.9933 4.79114 74.6154 5.83279L74.6958 5.96734L74.784 5.83778C75.4944 4.7939 76.5737 4.26807 78.0402 4.26807C79.3011 4.26807 80.296 4.67743 81.0363 5.49031ZM46.9933 9.95369L46.9418 10.017L46.9935 10.0801L51.4985 15.5863H48.3962L44.3478 10.5369L44.1698 10.3148V10.5994V15.5863H41.479V0.1H44.1698V9.41176V9.70203L44.3485 9.47335L48.1729 4.58179H51.3648L46.9933 9.95369ZM31.1608 12.3714L31.1608 12.3714L31.1626 12.3732C31.7651 12.9757 32.5155 13.2765 33.407 13.2765C34.2985 13.2765 35.049 12.9757 35.6514 12.3732C36.2545 11.7701 36.5546 11.0043 36.5546 10.084C36.5546 9.16372 36.2545 8.39797 35.6514 7.79484C35.049 7.1924 34.2985 6.8916 33.407 6.8916C32.5155 6.8916 31.7651 7.1924 31.1626 7.79484L31.1608 7.79667C30.5742 8.4142 30.2818 9.17894 30.2818 10.084C30.2818 10.9891 30.5742 11.7539 31.1608 12.3714ZM17.8555 12.3714L17.8555 12.3714L17.8573 12.3732C18.4598 12.9757 19.2102 13.2765 20.1017 13.2765C20.9932 13.2765 21.7436 12.9757 22.3461 12.3732C22.9492 11.7701 23.2493 11.0043 23.2493 10.084C23.2493 9.16372 22.9492 8.39797 22.3461 7.79484C21.7436 7.1924 20.9932 6.8916 20.1017 6.8916C19.2102 6.8916 18.4598 7.1924 17.8573 7.79484L17.8555 7.79667C17.2689 8.4142 16.9765 9.17894 16.9765 10.084C16.9765 10.9891 17.2689 11.7539 17.8555 12.3714ZM8.91876 6.3297H9.01876V6.2297V0.100005H11.8888V15.5863H9.01876V9.18768V9.08768H8.91876H3.09244H2.99244V9.18768V15.5863H0.1V0.100005H2.99244V6.2297V6.3297H3.09244H8.91876ZM37.5492 14.2262C36.4334 15.342 35.0549 15.9 33.407 15.9C31.7591 15.9 30.3806 15.342 29.2648 14.2262C28.1491 13.1104 27.5911 11.732 27.5911 10.084C27.5911 8.45132 28.1489 7.08023 29.2648 5.96427C30.396 4.8331 31.7747 4.26807 33.407 4.26807C35.0393 4.26807 36.418 4.8331 37.5492 5.96427C38.6805 7.09563 39.2454 8.46693 39.2454 10.084C39.2454 11.7164 38.6804 13.095 37.5492 14.2262ZM24.2439 14.2262C23.1281 15.342 21.7496 15.9 20.1017 15.9C18.4538 15.9 17.0753 15.342 15.9595 14.2262C14.8438 13.1104 14.2857 11.732 14.2857 10.084C14.2857 8.45132 14.8436 7.08023 15.9595 5.96427C17.0907 4.8331 18.4694 4.26807 20.1017 4.26807C21.734 4.26807 23.1127 4.8331 24.2439 5.96427C25.3752 7.09563 25.9401 8.46693 25.9401 10.084C25.9401 11.7164 25.375 13.095 24.2439 14.2262Z" stroke="url(#paint6_linear_19_1108)" stroke-width="0.2"/>
<defs>
<filter id="filter0_i_19_1108" x="0" y="0" width="82.2755" height="16" filterUnits="userSpaceOnUse" color-interpolation-filters="sRGB">
<feFlood flood-opacity="0" result="BackgroundImageFix"/>
<feBlend mode="normal" in="SourceGraphic" in2="BackgroundImageFix" result="shape"/>
<feColorMatrix in="SourceAlpha" type="matrix" values="0 0 0 0 0 0 0 0 0 0 0 0 0 0 0 0 0 0 127 0" result="hardAlpha"/>
<feOffset/>
<feGaussianBlur stdDeviation="0.5"/>
<feComposite in2="hardAlpha" operator="arithmetic" k2="-1" k3="1"/>
<feColorMatrix type="matrix" values="0 0 0 0 0.389242 0 0 0 0 0.207595 0 0 0 0 0 0 0 0 0.16 0"/>
<feBlend mode="normal" in2="shape" result="effect1_innerShadow_19_1108"/>
</filter>
<linearGradient id="paint0_linear_19_1108" x1="0" y1="7.84313" x2="82" y2="7.84313" gradientUnits="userSpaceOnUse">
<stop stop-color="#FFA940"/>
<stop offset="0.5" stop-color="#FFCA75"/>
<stop offset="1" stop-color="#FF8BF5"/>
</linearGradient>
<linearGradient id="paint1_linear_19_1108" x1="0" y1="7.84313" x2="82" y2="7.84313" gradientUnits="userSpaceOnUse">
<stop stop-color="#FFA940"/>
<stop offset="0.5" stop-color="#FFCA75"/>
<stop offset="1" stop-color="#FF8BF5"/>
</linearGradient>
<linearGradient id="paint2_linear_19_1108" x1="0" y1="7.84313" x2="82" y2="7.84313" gradientUnits="userSpaceOnUse">
<stop stop-color="#FFA940"/>
<stop offset="0.5" stop-color="#FFCA75"/>
<stop offset="1" stop-color="#FF8BF5"/>
</linearGradient>
<linearGradient id="paint3_linear_19_1108" x1="0" y1="7.84313" x2="82" y2="7.84313" gradientUnits="userSpaceOnUse">
<stop stop-color="#FFA940"/>
<stop offset="0.5" stop-color="#FFCA75"/>
<stop offset="1" stop-color="#FF8BF5"/>
</linearGradient>
<linearGradient id="paint4_linear_19_1108" x1="0" y1="7.84313" x2="82" y2="7.84313" gradientUnits="userSpaceOnUse">
<stop stop-color="#FFA940"/>
<stop offset="0.5" stop-color="#FFCA75"/>
<stop offset="1" stop-color="#FF8BF5"/>
</linearGradient>
<linearGradient id="paint5_linear_19_1108" x1="0" y1="7.84313" x2="82" y2="7.84313" gradientUnits="userSpaceOnUse">
<stop stop-color="#FFA940"/>
<stop offset="0.5" stop-color="#FFCA75"/>
<stop offset="1" stop-color="#FF8BF5"/>
</linearGradient>
<linearGradient id="paint6_linear_19_1108" x1="0" y1="8" x2="82.2755" y2="8" gradientUnits="userSpaceOnUse">
<stop stop-color="#FFA940"/>
<stop offset="0.5" stop-color="#FFBA5B"/>
<stop offset="1" stop-color="#FF8BF5"/>
</linearGradient>
</defs>
</svg>
