<svg width="24" height="24" viewBox="0 0 24 24" fill="none" xmlns="http://www.w3.org/2000/svg">
<path fill-rule="evenodd" clip-rule="evenodd" d="M4.21578 8.8152C4.73597 4.91373 8.064 2 12 2C15.936 2 19.264 4.91375 19.7842 8.8152L20.8403 16.7356L20.8403 16.7357C21.0001 17.9346 20.0674 19 18.8578 19H16.6463C15.7422 20.7479 14.0386 22 12 22C9.96137 22 8.25777 20.7479 7.35362 19H5.14217C3.93256 19 2.99987 17.9346 3.15972 16.7356L4.1496 16.8676L3.15972 16.7356L4.21578 8.8152ZM9.77821 19C10.3872 19.6373 11.1768 20 12 20C12.8232 20 13.6128 19.6373 14.2217 19H9.77821ZM12 4C9.0664 4 6.58595 6.17167 6.19824 9.07952L5.20701 8.94736L6.19824 9.07952L5.14218 17L5.14217 17H18.8578L18.8578 16.9999L17.8018 9.07955C17.414 6.17167 14.9336 4 12 4Z" fill="black"/>
</svg>
