<svg width="24" height="24" viewBox="0 0 24 24" fill="none" xmlns="http://www.w3.org/2000/svg">
<path fill-rule="evenodd" clip-rule="evenodd" d="M2 12C2 6.47716 6.47716 2 12 2C17.5229 2 22 6.47716 22 12C22 17.5229 17.5229 22 12 22C10.527 22 9.12598 21.6809 7.86444 21.1072L3.91523 21.8461L3.91516 21.8462C2.86783 22.042 1.95575 21.114 2.16998 20.0702C2.16999 20.0702 2.16999 20.0701 2.16999 20.0701L2.95146 16.2622C2.34093 14.9681 2 13.5225 2 12ZM2.98488 16.0993C2.98489 16.0993 2.98489 16.0992 2.98489 16.0992ZM8.01861 21.0784C8.01892 21.0783 8.01924 21.0783 8.01955 21.0782L8.01936 21.0782L8.01861 21.0784ZM12 4C7.58172 4 4 7.58172 4 12C4 13.2682 4.29437 14.4648 4.81759 15.5278L4.81761 15.5278C4.96154 15.8202 5.01371 16.162 4.94406 16.5013M4.94405 16.5014L4.27872 19.7434L7.65135 19.1124C7.97434 19.0519 8.2983 19.1009 8.57879 19.2339C9.61487 19.7248 10.7739 20 12 20C16.4183 20 20 16.4183 20 12C20 7.58172 16.4183 4 12 4" fill="black"/>
<path d="M6.625 12C6.625 12.4832 7.01675 12.875 7.5 12.875C7.98325 12.875 8.375 12.4832 8.375 12C8.375 11.5168 7.98325 11.125 7.5 11.125C7.01675 11.125 6.625 11.5168 6.625 12ZM11.125 12C11.125 12.4832 11.5168 12.875 12 12.875C12.4832 12.875 12.875 12.4832 12.875 12C12.875 11.5168 12.4832 11.125 12 11.125C11.5168 11.125 11.125 11.5168 11.125 12ZM15.625 12C15.625 12.4832 16.0168 12.875 16.5 12.875C16.9832 12.875 17.375 12.4832 17.375 12C17.375 11.5168 16.9832 11.125 16.5 11.125C16.0168 11.125 15.625 11.5168 15.625 12Z" fill="black"/>
<path fill-rule="evenodd" clip-rule="evenodd" d="M6.25 12C6.25 11.3097 6.80963 10.75 7.5 10.75C8.19037 10.75 8.75 11.3097 8.75 12C8.75 12.6903 8.19037 13.25 7.5 13.25C6.80963 13.25 6.25 12.6903 6.25 12ZM7.5 11.5C7.22387 11.5 7 11.7239 7 12C7 12.2761 7.22387 12.5 7.5 12.5C7.77613 12.5 8 12.2761 8 12C8 11.7239 7.77613 11.5 7.5 11.5ZM10.75 12C10.75 11.3097 11.3097 10.75 12 10.75C12.6903 10.75 13.25 11.3097 13.25 12C13.25 12.6903 12.6903 13.25 12 13.25C11.3097 13.25 10.75 12.6903 10.75 12ZM12 11.5C11.7239 11.5 11.5 11.7239 11.5 12C11.5 12.2761 11.7239 12.5 12 12.5C12.2761 12.5 12.5 12.2761 12.5 12C12.5 11.7239 12.2761 11.5 12 11.5ZM15.25 12C15.25 11.3097 15.8097 10.75 16.5 10.75C17.1903 10.75 17.75 11.3097 17.75 12C17.75 12.6903 17.1903 13.25 16.5 13.25C15.8097 13.25 15.25 12.6903 15.25 12ZM16.5 11.5C16.2239 11.5 16 11.7239 16 12C16 12.2761 16.2239 12.5 16.5 12.5C16.7761 12.5 17 12.2761 17 12C17 11.7239 16.7761 11.5 16.5 11.5Z" fill="black"/>
</svg>
