<svg width="24" height="24" viewBox="0 0 24 24" fill="none" xmlns="http://www.w3.org/2000/svg">
<path fill-rule="evenodd" clip-rule="evenodd" d="M9 1C9.55228 1 10 1.44772 10 2C10 4.30848 10.5108 5.74243 11.3842 6.61581C12.2576 7.48919 13.6915 8 16 8C16.5523 8 17 8.44772 17 9C17 9.55228 16.5523 10 16 10C13.6915 10 12.2576 10.5108 11.3842 11.3842C10.5108 12.2576 10 13.6915 10 16C10 16.5523 9.55228 17 9 17C8.44772 17 8 16.5523 8 16C8 13.6915 7.48919 12.2576 6.61581 11.3842C5.74243 10.5108 4.30848 10 2 10C1.44772 10 1 9.55228 1 9C1 8.44772 1.44772 8 2 8C4.30848 8 5.74243 7.48919 6.61581 6.61581C7.48919 5.74243 8 4.30848 8 2C8 1.44772 8.44772 1 9 1ZM9 6.73342C8.73606 7.21199 8.41472 7.64533 8.03002 8.03002C7.64533 8.41472 7.21199 8.73606 6.73342 9C7.21199 9.26395 7.64533 9.58529 8.03002 9.96998C8.41472 10.3547 8.73606 10.788 9 11.2666C9.26395 10.788 9.58529 10.3547 9.96998 9.96998C10.3547 9.58529 10.788 9.26395 11.2666 9C10.788 8.73606 10.3547 8.41472 9.96998 8.03002C9.58529 7.64533 9.26395 7.21199 9 6.73342Z" fill="black"/>
<path fill-rule="evenodd" clip-rule="evenodd" d="M17.5 12C18.0523 12 18.5 12.4477 18.5 13C18.5 14.4404 18.8198 15.2494 19.2852 15.7148C19.7506 16.1802 20.5596 16.5 22 16.5C22.5523 16.5 23 16.9477 23 17.5C23 18.0523 22.5523 18.5 22 18.5C20.5596 18.5 19.7506 18.8198 19.2852 19.2852C18.8198 19.7506 18.5 20.5596 18.5 22C18.5 22.5523 18.0523 23 17.5 23C16.9477 23 16.5 22.5523 16.5 22C16.5 20.5596 16.1802 19.7506 15.7148 19.2852C15.2494 18.8198 14.4404 18.5 13 18.5C12.4477 18.5 12 18.0523 12 17.5C12 16.9477 12.4477 16.5 13 16.5C14.4404 16.5 15.2494 16.1802 15.7148 15.7148C16.1802 15.2494 16.5 14.4404 16.5 13C16.5 12.4477 16.9477 12 17.5 12ZM17.5 16.7008C17.3874 16.8512 17.2639 16.994 17.129 17.129C16.994 17.2639 16.8512 17.3874 16.7008 17.5C16.8512 17.6126 16.994 17.7361 17.129 17.871C17.2639 18.006 17.3874 18.1488 17.5 18.2992C17.6126 18.1488 17.7361 18.006 17.871 17.871C18.006 17.7361 18.1488 17.6126 18.2992 17.5C18.1488 17.3874 18.006 17.2639 17.871 17.129C17.7361 16.994 17.6126 16.8512 17.5 16.7008Z" fill="black"/>
</svg>
