<svg width="24" height="24" viewBox="0 0 24 24" fill="none" xmlns="http://www.w3.org/2000/svg">
<path d="M8 15C7.44772 15 7 15.4477 7 16C7 16.5523 7.44772 17 8 17V15ZM16 17C16.5523 17 17 16.5523 17 16C17 15.4477 16.5523 15 16 15V17ZM19 9.26153V18.4H21V9.26153H19ZM18.4 19H5.6V21H18.4V19ZM5 18.4V9.26153H3V18.4H5ZM5.22164 8.79587L11.6216 3.59587L10.3605 2.04364L3.96046 7.24364L5.22164 8.79587ZM12.3784 3.59587L18.7784 8.79587L20.0395 7.24364L13.6395 2.04364L12.3784 3.59587ZM11.6216 3.59587C11.8128 3.44052 11.9147 3.35856 11.9923 3.30453C12.0595 3.2577 12.05 3.27446 12 3.28845L11.4609 1.36248C11.211 1.43243 11.0116 1.55022 10.849 1.6635C10.6968 1.76956 10.5289 1.90677 10.3605 2.04364L11.6216 3.59587ZM13.6395 2.04364C13.4711 1.90677 13.3032 1.76956 13.151 1.6635C12.9884 1.55022 12.789 1.43243 12.5391 1.36248L12 3.28845C11.95 3.27446 11.9405 3.2577 12.0077 3.30453C12.0853 3.35856 12.1872 3.44052 12.3784 3.59587L13.6395 2.04364ZM12 3.28845L12.5391 1.36248C12.1865 1.26378 11.8135 1.26378 11.4609 1.36248L12 3.28845ZM5.6 19C5.30347 19 5.14122 18.9992 5.02463 18.9897C4.91972 18.9811 4.94249 18.9707 5 19L4.09202 20.782C4.36344 20.9203 4.63318 20.9644 4.86177 20.983C5.07869 21.0008 5.33647 21 5.6 21V19ZM3 18.4C3 18.6635 2.99922 18.9213 3.01695 19.1382C3.03562 19.3668 3.07969 19.6365 3.21799 19.908L5 19C5.0293 19.0575 5.01887 19.0803 5.0103 18.9753C5.00078 18.8588 5 18.6965 5 18.4H3ZM5 19L3.21799 19.908C3.40973 20.2843 3.7157 20.5902 4.09202 20.782L5 19ZM19 18.4C19 18.6965 18.9992 18.8588 18.9897 18.9753C18.9811 19.0803 18.9707 19.0575 19 19L20.782 19.908C20.9203 19.6365 20.9644 19.3668 20.9831 19.1382C21.0008 18.9213 21 18.6635 21 18.4H19ZM18.4 21C18.6635 21 18.9213 21.0008 19.1382 20.983C19.3668 20.9644 19.6366 20.9203 19.908 20.782L19 19C19.0575 18.9707 19.0803 18.9811 18.9754 18.9897C18.8588 18.9992 18.6965 19 18.4 19V21ZM19 19L19.908 20.782C20.2843 20.5902 20.5903 20.2843 20.782 19.908L19 19ZM21 9.26153C21 9.03681 21.0083 8.73812 20.9294 8.44915L19 8.97595C18.9922 8.94724 18.9946 8.93731 18.9969 8.98183C18.9997 9.03649 19 9.11184 19 9.26153H21ZM18.7784 8.79587C18.8945 8.89026 18.9528 8.93801 18.9935 8.97465C19.0266 9.0045 19.0173 9.00014 19 8.97595L20.6255 7.81073C20.451 7.56728 20.214 7.38535 20.0395 7.24364L18.7784 8.79587ZM20.9294 8.44915C20.8668 8.21999 20.7639 8.0038 20.6255 7.81073L19 8.97595L20.9294 8.44915ZM5 9.26153C5 9.11184 5.0003 9.03649 5.0031 8.98183C5.00538 8.93731 5.00784 8.94724 5 8.97595L3.07063 8.44915C2.99173 8.73812 3 9.03681 3 9.26153H5ZM3.96046 7.24364C3.78605 7.38535 3.54901 7.56728 3.3745 7.81073L5 8.97595C4.98266 9.00014 4.97341 9.0045 5.00652 8.97466C5.04718 8.93801 5.10546 8.89026 5.22164 8.79587L3.96046 7.24364ZM5 8.97595L3.3745 7.81073C3.23609 8.0038 3.1332 8.21999 3.07063 8.44915L5 8.97595ZM8 17H16V15H8V17Z" fill="black"/>
</svg>
